<mxfile host="app.diagrams.net" agent="Mozilla/5.0 (Macintosh; Intel Mac OS X 10_15_7) AppleWebKit/537.36 (KHTML, like Gecko) Chrome/129.0.0.0 Safari/537.36" version="24.7.17">
  <diagram name="Page-1" id="SpzJ_nLw1dhWfY-l7lE9">
    <mxGraphModel dx="1159" dy="808" grid="1" gridSize="10" guides="1" tooltips="1" connect="1" arrows="1" fold="1" page="1" pageScale="1" pageWidth="850" pageHeight="1100" math="0" shadow="0">
      <root>
        <mxCell id="0" />
        <mxCell id="1" parent="0" />
        <mxCell id="LD1xmTmmviFCs9YbiX1h-50" style="edgeStyle=orthogonalEdgeStyle;rounded=0;orthogonalLoop=1;jettySize=auto;html=1;exitX=1;exitY=0.5;exitDx=0;exitDy=0;entryX=0;entryY=0.5;entryDx=0;entryDy=0;" edge="1" parent="1" source="LD1xmTmmviFCs9YbiX1h-45" target="LD1xmTmmviFCs9YbiX1h-47">
          <mxGeometry relative="1" as="geometry" />
        </mxCell>
        <mxCell id="LD1xmTmmviFCs9YbiX1h-51" style="edgeStyle=orthogonalEdgeStyle;rounded=0;orthogonalLoop=1;jettySize=auto;html=1;exitX=1;exitY=0.5;exitDx=0;exitDy=0;entryX=0;entryY=0.5;entryDx=0;entryDy=0;" edge="1" parent="1" source="LD1xmTmmviFCs9YbiX1h-45" target="LD1xmTmmviFCs9YbiX1h-48">
          <mxGeometry relative="1" as="geometry" />
        </mxCell>
        <mxCell id="LD1xmTmmviFCs9YbiX1h-52" style="edgeStyle=orthogonalEdgeStyle;rounded=0;orthogonalLoop=1;jettySize=auto;html=1;exitX=1;exitY=0.5;exitDx=0;exitDy=0;entryX=0;entryY=0.5;entryDx=0;entryDy=0;" edge="1" parent="1" source="LD1xmTmmviFCs9YbiX1h-45" target="LD1xmTmmviFCs9YbiX1h-49">
          <mxGeometry relative="1" as="geometry" />
        </mxCell>
        <mxCell id="LD1xmTmmviFCs9YbiX1h-45" value="" style="rounded=0;whiteSpace=wrap;html=1;" vertex="1" parent="1">
          <mxGeometry x="140" y="10" width="350" height="490" as="geometry" />
        </mxCell>
        <mxCell id="LD1xmTmmviFCs9YbiX1h-1" value="Indeed Job Data Scraper" style="whiteSpace=wrap;html=1;aspect=fixed;" vertex="1" parent="1">
          <mxGeometry x="20" y="190" width="80" height="80" as="geometry" />
        </mxCell>
        <mxCell id="LD1xmTmmviFCs9YbiX1h-6" value="General Job Listing Data" style="swimlane;childLayout=stackLayout;horizontal=1;startSize=50;horizontalStack=0;rounded=1;fontSize=14;fontStyle=0;strokeWidth=2;resizeParent=0;resizeLast=1;shadow=0;dashed=0;align=center;arcSize=4;whiteSpace=wrap;html=1;" vertex="1" parent="1">
          <mxGeometry x="230" y="30" width="140" height="160" as="geometry" />
        </mxCell>
        <mxCell id="LD1xmTmmviFCs9YbiX1h-7" value="+ Job Link&lt;div&gt;+ Company&lt;/div&gt;&lt;div&gt;+ Job Title&lt;/div&gt;&lt;div&gt;+ Salary&lt;/div&gt;&lt;div&gt;+ Job Description&lt;/div&gt;" style="align=left;strokeColor=none;fillColor=none;spacingLeft=4;fontSize=12;verticalAlign=top;resizable=0;rotatable=0;part=1;html=1;" vertex="1" parent="LD1xmTmmviFCs9YbiX1h-6">
          <mxGeometry y="50" width="140" height="110" as="geometry" />
        </mxCell>
        <mxCell id="LD1xmTmmviFCs9YbiX1h-9" style="edgeStyle=orthogonalEdgeStyle;rounded=0;orthogonalLoop=1;jettySize=auto;html=1;exitX=0.5;exitY=1;exitDx=0;exitDy=0;" edge="1" parent="LD1xmTmmviFCs9YbiX1h-6" source="LD1xmTmmviFCs9YbiX1h-7" target="LD1xmTmmviFCs9YbiX1h-7">
          <mxGeometry relative="1" as="geometry" />
        </mxCell>
        <mxCell id="LD1xmTmmviFCs9YbiX1h-10" value="Job Data" style="swimlane;childLayout=stackLayout;horizontal=1;startSize=50;horizontalStack=0;rounded=1;fontSize=14;fontStyle=0;strokeWidth=2;resizeParent=0;resizeLast=1;shadow=0;dashed=0;align=center;arcSize=4;whiteSpace=wrap;html=1;" vertex="1" parent="1">
          <mxGeometry x="230" y="260" width="140" height="160" as="geometry" />
        </mxCell>
        <mxCell id="LD1xmTmmviFCs9YbiX1h-11" value="+ Job Link&lt;div&gt;+ Responsibilities&lt;/div&gt;&lt;div&gt;+ Qualifications&lt;/div&gt;&lt;div&gt;+ Skills&lt;/div&gt;" style="align=left;strokeColor=none;fillColor=none;spacingLeft=4;fontSize=12;verticalAlign=top;resizable=0;rotatable=0;part=1;html=1;" vertex="1" parent="LD1xmTmmviFCs9YbiX1h-10">
          <mxGeometry y="50" width="140" height="110" as="geometry" />
        </mxCell>
        <mxCell id="LD1xmTmmviFCs9YbiX1h-12" style="edgeStyle=orthogonalEdgeStyle;rounded=0;orthogonalLoop=1;jettySize=auto;html=1;exitX=0.5;exitY=1;exitDx=0;exitDy=0;" edge="1" parent="LD1xmTmmviFCs9YbiX1h-10" source="LD1xmTmmviFCs9YbiX1h-11" target="LD1xmTmmviFCs9YbiX1h-11">
          <mxGeometry relative="1" as="geometry" />
        </mxCell>
        <mxCell id="LD1xmTmmviFCs9YbiX1h-16" style="edgeStyle=orthogonalEdgeStyle;rounded=0;orthogonalLoop=1;jettySize=auto;html=1;exitX=1;exitY=0;exitDx=0;exitDy=0;entryX=1;entryY=0.082;entryDx=0;entryDy=0;entryPerimeter=0;" edge="1" parent="1" source="LD1xmTmmviFCs9YbiX1h-7" target="LD1xmTmmviFCs9YbiX1h-11">
          <mxGeometry relative="1" as="geometry">
            <Array as="points">
              <mxPoint x="370" y="90" />
              <mxPoint x="390" y="90" />
              <mxPoint x="390" y="319" />
            </Array>
          </mxGeometry>
        </mxCell>
        <mxCell id="LD1xmTmmviFCs9YbiX1h-17" value="Connected off Job Link" style="rounded=0;whiteSpace=wrap;html=1;" vertex="1" parent="1">
          <mxGeometry x="350" y="210" width="110" height="30" as="geometry" />
        </mxCell>
        <mxCell id="LD1xmTmmviFCs9YbiX1h-19" style="edgeStyle=orthogonalEdgeStyle;rounded=0;orthogonalLoop=1;jettySize=auto;html=1;exitX=1;exitY=0.5;exitDx=0;exitDy=0;entryX=-0.029;entryY=0.144;entryDx=0;entryDy=0;entryPerimeter=0;" edge="1" parent="1" source="LD1xmTmmviFCs9YbiX1h-1" target="LD1xmTmmviFCs9YbiX1h-6">
          <mxGeometry relative="1" as="geometry" />
        </mxCell>
        <mxCell id="LD1xmTmmviFCs9YbiX1h-20" style="edgeStyle=orthogonalEdgeStyle;rounded=0;orthogonalLoop=1;jettySize=auto;html=1;exitX=1;exitY=0.5;exitDx=0;exitDy=0;entryX=0;entryY=0.169;entryDx=0;entryDy=0;entryPerimeter=0;" edge="1" parent="1" source="LD1xmTmmviFCs9YbiX1h-1" target="LD1xmTmmviFCs9YbiX1h-10">
          <mxGeometry relative="1" as="geometry" />
        </mxCell>
        <mxCell id="LD1xmTmmviFCs9YbiX1h-68" style="edgeStyle=orthogonalEdgeStyle;rounded=0;orthogonalLoop=1;jettySize=auto;html=1;exitX=0.5;exitY=1;exitDx=0;exitDy=0;entryX=1;entryY=0.5;entryDx=0;entryDy=0;" edge="1" parent="1" source="LD1xmTmmviFCs9YbiX1h-23" target="LD1xmTmmviFCs9YbiX1h-66">
          <mxGeometry relative="1" as="geometry" />
        </mxCell>
        <mxCell id="LD1xmTmmviFCs9YbiX1h-23" value="User Resume" style="whiteSpace=wrap;html=1;aspect=fixed;" vertex="1" parent="1">
          <mxGeometry x="1030" y="70" width="80" height="80" as="geometry" />
        </mxCell>
        <mxCell id="LD1xmTmmviFCs9YbiX1h-37" style="edgeStyle=orthogonalEdgeStyle;rounded=0;orthogonalLoop=1;jettySize=auto;html=1;exitX=0.5;exitY=1;exitDx=0;exitDy=0;entryX=0;entryY=0.5;entryDx=0;entryDy=0;" edge="1" parent="1" source="LD1xmTmmviFCs9YbiX1h-34" target="LD1xmTmmviFCs9YbiX1h-36">
          <mxGeometry relative="1" as="geometry" />
        </mxCell>
        <mxCell id="LD1xmTmmviFCs9YbiX1h-34" value="Vector DB" style="rounded=0;whiteSpace=wrap;html=1;" vertex="1" parent="1">
          <mxGeometry x="780" y="235" width="110" height="40" as="geometry" />
        </mxCell>
        <mxCell id="LD1xmTmmviFCs9YbiX1h-41" style="edgeStyle=orthogonalEdgeStyle;rounded=0;orthogonalLoop=1;jettySize=auto;html=1;exitX=0.5;exitY=1;exitDx=0;exitDy=0;" edge="1" parent="1" source="LD1xmTmmviFCs9YbiX1h-36" target="LD1xmTmmviFCs9YbiX1h-40">
          <mxGeometry relative="1" as="geometry" />
        </mxCell>
        <mxCell id="LD1xmTmmviFCs9YbiX1h-36" value="Relevent Chunks" style="whiteSpace=wrap;html=1;aspect=fixed;" vertex="1" parent="1">
          <mxGeometry x="930" y="260" width="80" height="80" as="geometry" />
        </mxCell>
        <mxCell id="LD1xmTmmviFCs9YbiX1h-43" style="edgeStyle=orthogonalEdgeStyle;rounded=0;orthogonalLoop=1;jettySize=auto;html=1;exitX=0.5;exitY=1;exitDx=0;exitDy=0;entryX=0.5;entryY=0;entryDx=0;entryDy=0;" edge="1" parent="1" source="LD1xmTmmviFCs9YbiX1h-40" target="LD1xmTmmviFCs9YbiX1h-42">
          <mxGeometry relative="1" as="geometry" />
        </mxCell>
        <mxCell id="LD1xmTmmviFCs9YbiX1h-40" value="Top Relevant Jobs" style="whiteSpace=wrap;html=1;aspect=fixed;" vertex="1" parent="1">
          <mxGeometry x="930" y="380" width="80" height="80" as="geometry" />
        </mxCell>
        <mxCell id="LD1xmTmmviFCs9YbiX1h-42" value="Auto Apply" style="whiteSpace=wrap;html=1;aspect=fixed;" vertex="1" parent="1">
          <mxGeometry x="930" y="500" width="80" height="80" as="geometry" />
        </mxCell>
        <mxCell id="LD1xmTmmviFCs9YbiX1h-46" value="May not need to pull full information for job data, we can pull pdf and use that for our rag model&lt;div&gt;&lt;br&gt;&lt;/div&gt;&lt;div&gt;Still nice to have general job listing data&lt;/div&gt;" style="rounded=0;whiteSpace=wrap;html=1;" vertex="1" parent="1">
          <mxGeometry x="207.5" y="460" width="215" height="100" as="geometry" />
        </mxCell>
        <mxCell id="LD1xmTmmviFCs9YbiX1h-56" style="edgeStyle=orthogonalEdgeStyle;rounded=0;orthogonalLoop=1;jettySize=auto;html=1;exitX=1;exitY=0.5;exitDx=0;exitDy=0;entryX=0;entryY=0.5;entryDx=0;entryDy=0;" edge="1" parent="1" source="LD1xmTmmviFCs9YbiX1h-47" target="LD1xmTmmviFCs9YbiX1h-53">
          <mxGeometry relative="1" as="geometry" />
        </mxCell>
        <mxCell id="LD1xmTmmviFCs9YbiX1h-47" value="Chunk 1" style="rounded=0;whiteSpace=wrap;html=1;" vertex="1" parent="1">
          <mxGeometry x="550" y="190" width="80" height="30" as="geometry" />
        </mxCell>
        <mxCell id="LD1xmTmmviFCs9YbiX1h-57" style="edgeStyle=orthogonalEdgeStyle;rounded=0;orthogonalLoop=1;jettySize=auto;html=1;exitX=1;exitY=0.5;exitDx=0;exitDy=0;entryX=0;entryY=0.5;entryDx=0;entryDy=0;" edge="1" parent="1" source="LD1xmTmmviFCs9YbiX1h-48" target="LD1xmTmmviFCs9YbiX1h-54">
          <mxGeometry relative="1" as="geometry" />
        </mxCell>
        <mxCell id="LD1xmTmmviFCs9YbiX1h-48" value="Chunk 2" style="rounded=0;whiteSpace=wrap;html=1;" vertex="1" parent="1">
          <mxGeometry x="550" y="240" width="80" height="30" as="geometry" />
        </mxCell>
        <mxCell id="LD1xmTmmviFCs9YbiX1h-58" style="edgeStyle=orthogonalEdgeStyle;rounded=0;orthogonalLoop=1;jettySize=auto;html=1;exitX=1;exitY=0.5;exitDx=0;exitDy=0;entryX=0;entryY=0.5;entryDx=0;entryDy=0;" edge="1" parent="1" source="LD1xmTmmviFCs9YbiX1h-49" target="LD1xmTmmviFCs9YbiX1h-55">
          <mxGeometry relative="1" as="geometry" />
        </mxCell>
        <mxCell id="LD1xmTmmviFCs9YbiX1h-49" value="Chunk 3" style="rounded=0;whiteSpace=wrap;html=1;" vertex="1" parent="1">
          <mxGeometry x="550" y="290" width="80" height="30" as="geometry" />
        </mxCell>
        <mxCell id="LD1xmTmmviFCs9YbiX1h-59" style="edgeStyle=orthogonalEdgeStyle;rounded=0;orthogonalLoop=1;jettySize=auto;html=1;exitX=1;exitY=0.5;exitDx=0;exitDy=0;entryX=0;entryY=0.5;entryDx=0;entryDy=0;" edge="1" parent="1" source="LD1xmTmmviFCs9YbiX1h-53" target="LD1xmTmmviFCs9YbiX1h-34">
          <mxGeometry relative="1" as="geometry" />
        </mxCell>
        <mxCell id="LD1xmTmmviFCs9YbiX1h-53" value="Embedding 1" style="rounded=0;whiteSpace=wrap;html=1;" vertex="1" parent="1">
          <mxGeometry x="660" y="190" width="80" height="30" as="geometry" />
        </mxCell>
        <mxCell id="LD1xmTmmviFCs9YbiX1h-60" style="edgeStyle=orthogonalEdgeStyle;rounded=0;orthogonalLoop=1;jettySize=auto;html=1;exitX=1;exitY=0.5;exitDx=0;exitDy=0;" edge="1" parent="1" source="LD1xmTmmviFCs9YbiX1h-54">
          <mxGeometry relative="1" as="geometry">
            <mxPoint x="780" y="255" as="targetPoint" />
          </mxGeometry>
        </mxCell>
        <mxCell id="LD1xmTmmviFCs9YbiX1h-54" value="Embedding 2" style="rounded=0;whiteSpace=wrap;html=1;" vertex="1" parent="1">
          <mxGeometry x="660" y="240" width="80" height="30" as="geometry" />
        </mxCell>
        <mxCell id="LD1xmTmmviFCs9YbiX1h-62" style="edgeStyle=orthogonalEdgeStyle;rounded=0;orthogonalLoop=1;jettySize=auto;html=1;exitX=1;exitY=0.5;exitDx=0;exitDy=0;entryX=0;entryY=0.5;entryDx=0;entryDy=0;" edge="1" parent="1" source="LD1xmTmmviFCs9YbiX1h-55" target="LD1xmTmmviFCs9YbiX1h-34">
          <mxGeometry relative="1" as="geometry" />
        </mxCell>
        <mxCell id="LD1xmTmmviFCs9YbiX1h-55" value="Embedding 3" style="rounded=0;whiteSpace=wrap;html=1;" vertex="1" parent="1">
          <mxGeometry x="660" y="290" width="80" height="30" as="geometry" />
        </mxCell>
        <mxCell id="LD1xmTmmviFCs9YbiX1h-64" style="edgeStyle=orthogonalEdgeStyle;rounded=0;orthogonalLoop=1;jettySize=auto;html=1;exitX=0;exitY=0.5;exitDx=0;exitDy=0;entryX=0.5;entryY=0;entryDx=0;entryDy=0;" edge="1" parent="1" source="LD1xmTmmviFCs9YbiX1h-63" target="LD1xmTmmviFCs9YbiX1h-53">
          <mxGeometry relative="1" as="geometry" />
        </mxCell>
        <mxCell id="LD1xmTmmviFCs9YbiX1h-67" style="edgeStyle=orthogonalEdgeStyle;rounded=0;orthogonalLoop=1;jettySize=auto;html=1;exitX=1;exitY=0.5;exitDx=0;exitDy=0;entryX=0.5;entryY=0;entryDx=0;entryDy=0;" edge="1" parent="1" source="LD1xmTmmviFCs9YbiX1h-63" target="LD1xmTmmviFCs9YbiX1h-66">
          <mxGeometry relative="1" as="geometry" />
        </mxCell>
        <mxCell id="LD1xmTmmviFCs9YbiX1h-63" value="Emedding Model" style="rounded=0;whiteSpace=wrap;html=1;" vertex="1" parent="1">
          <mxGeometry x="790" y="20" width="120" height="60" as="geometry" />
        </mxCell>
        <mxCell id="LD1xmTmmviFCs9YbiX1h-70" style="edgeStyle=orthogonalEdgeStyle;rounded=0;orthogonalLoop=1;jettySize=auto;html=1;exitX=0;exitY=0.5;exitDx=0;exitDy=0;entryX=0.5;entryY=0;entryDx=0;entryDy=0;" edge="1" parent="1" source="LD1xmTmmviFCs9YbiX1h-66" target="LD1xmTmmviFCs9YbiX1h-34">
          <mxGeometry relative="1" as="geometry" />
        </mxCell>
        <mxCell id="LD1xmTmmviFCs9YbiX1h-66" value="Emedding" style="rounded=0;whiteSpace=wrap;html=1;" vertex="1" parent="1">
          <mxGeometry x="930" y="160" width="80" height="35" as="geometry" />
        </mxCell>
      </root>
    </mxGraphModel>
  </diagram>
</mxfile>
